<svg width="287" height="287" viewBox="0 0 287 287" fill="none" xmlns="http://www.w3.org/2000/svg">
<rect width="287" height="287" fill="black"/>
<circle cx="166" cy="96" r="12" fill="white"/>
<path d="M122.171 123.346L127.017 115.175L110.675 105.483L105.829 113.654L122.171 123.346ZM189 186.5L188.905 177L189 186.5ZM105.829 113.654C92.0278 136.925 90.1627 158.184 97.6938 174.381C105.204 190.531 121.145 199.5 138.013 199.5V180.5C127.853 180.5 119.037 175.219 114.922 166.369C110.829 157.566 110.471 143.075 122.171 123.346L105.829 113.654ZM138.013 199.5C162.105 199.5 177.379 180.029 183.321 162.485C186.369 153.485 187.499 143.706 185.787 135.184C184.063 126.605 178.968 117.789 168.596 114.858L163.429 133.142C164.557 133.461 166.274 134.52 167.159 138.926C168.055 143.388 167.59 149.703 165.325 156.39C160.64 170.221 150.414 180.5 138.013 180.5V199.5ZM168.596 114.858C163.334 113.371 158.102 114.012 153.597 116.612C149.331 119.074 146.368 122.901 144.393 126.806C140.482 134.537 139.335 144.664 140.728 154.352C142.139 164.169 146.313 174.638 154.337 182.723C162.549 190.997 174.189 196.149 189.095 196L188.905 177C178.811 177.101 172.203 173.753 167.823 169.339C163.256 164.737 160.495 158.331 159.535 151.648C158.555 144.836 159.599 138.838 161.347 135.382C162.201 133.693 162.935 133.16 163.095 133.068C163.145 133.039 163.115 133.062 163.05 133.07C162.989 133.077 163.093 133.047 163.429 133.142L168.596 114.858ZM189.095 196C209.556 195.795 223.197 185.351 230.702 171.367C237.902 157.95 239.368 141.621 237.401 128.129L218.599 130.871C220.132 141.379 218.789 153.383 213.96 162.383C209.435 170.815 201.827 176.871 188.905 177L189.095 196Z" fill="white"/>
<path d="M218.873 133.217C219.545 138.421 224.309 142.094 229.512 141.422C234.716 140.749 238.389 135.986 237.716 130.783L218.873 133.217ZM180.135 230.343L188.912 226.708L181.642 209.154L172.865 212.788L180.135 230.343ZM144 218.5C102.303 218.5 68.5 184.697 68.5 143H49.5C49.5 195.191 91.8091 237.5 144 237.5V218.5ZM68.5 143C68.5 101.303 102.303 67.5 144 67.5V48.5C91.8091 48.5 49.5 90.8091 49.5 143H68.5ZM144 67.5C182.379 67.5 214.083 96.145 218.873 133.217L237.716 130.783C231.718 84.3592 192.054 48.5 144 48.5V67.5ZM172.865 212.788C163.985 216.466 154.242 218.5 144 218.5V237.5C156.78 237.5 168.99 234.958 180.135 230.343L172.865 212.788Z" fill="white"/>
</svg>
